HIERARCHY
ROOT hip
{
	OFFSET 0.000000 0.000000 0.000000 
	CHANNELS 6 Xposition Yposition Zposition Xrotation Zrotation Yrotation
	JOINT abdomen
	{
		OFFSET 0.000000 3.402643 0.000000 
		CHANNELS 3 Xrotation Zrotation Yrotation
		JOINT chest
		{
			OFFSET 0.000000 8.438565 -0.680529 
			CHANNELS 3 Xrotation Zrotation Yrotation
			JOINT neck
			{
				OFFSET 0.000000 10.207942 -0.272212 
				CHANNELS 3 Xrotation Zrotation Yrotation
				JOINT head
				{
					OFFSET 0.000000 3.130431 0.000000 
					CHANNELS 3 Xrotation Zrotation Yrotation
					End Site
					{
						OFFSET 0.000000 3.130435 0.000000 
					}
				}
			}
			JOINT lCollar
			{
				OFFSET 3.470700 6.669187 -0.816635 
				CHANNELS 3 Yrotation Zrotation Xrotation
				JOINT lShldr
				{
					OFFSET 3.198488 0.000000 0.000000 
					CHANNELS 3 Zrotation Yrotation Xrotation
					JOINT lForeArm
					{
						OFFSET 10.139888 0.000000 0.000000 
						CHANNELS 3 Yrotation Zrotation Xrotation
						JOINT lHand
						{
							OFFSET 8.370511 0.000000 0.000000 
							CHANNELS 3 Zrotation Yrotation Xrotation
							End Site
							{
								OFFSET 4.083176 0.000000 0.000000 
							}
						}
					}
				}
			}
			JOINT rCollar
			{
				OFFSET -3.470700 6.669187 -0.816635 
				CHANNELS 3 Yrotation Zrotation Xrotation
				JOINT rShldr
				{
					OFFSET -3.198488 0.000000 0.000000 
					CHANNELS 3 Zrotation Yrotation Xrotation
					JOINT rForeArm
					{
						OFFSET -10.139888 0.000000 0.000000 
						CHANNELS 3 Yrotation Zrotation Xrotation
						JOINT rHand
						{
							OFFSET -8.370511 0.000000 0.000000 
							CHANNELS 3 Zrotation Yrotation Xrotation
							End Site
							{
								OFFSET -4.083176 0.000000 0.000000 
							}
						}
					}
				}
			}
		}
	}
	JOINT lThigh
	{
		OFFSET 5.308129 -1.633274 1.361059 
		CHANNELS 3 Xrotation Zrotation Yrotation
		JOINT lShin
		{
			OFFSET -2.041588 -20.007561 0.000000 
			CHANNELS 3 Xrotation Zrotation Yrotation
			JOINT lFoot
			{
				OFFSET 0.000000 -19.190928 -1.224953 
				CHANNELS 3 Xrotation Yrotation Zrotation
				End Site
				{
					OFFSET 0.000000 -2.449906 4.627600 
				}
			}
		}
	}
	JOINT rThigh
	{
		OFFSET -5.308129 -1.633274 1.361059 
		CHANNELS 3 Xrotation Zrotation Yrotation
		JOINT rShin
		{
			OFFSET 2.041588 -20.007561 0.000000 
			CHANNELS 3 Xrotation Zrotation Yrotation
			JOINT rFoot
			{
				OFFSET 0.000000 -19.190928 -1.224953 
				CHANNELS 3 Xrotation Yrotation Zrotation
				End Site
				{
					OFFSET 0.000000 -2.449906 4.627600 
				}
			}
		}
	}
}
MOTION
Frames: 11
Frame Time: 0.033333
9.209538 31.764050 61.892517 -1.603871 1.169761 -90.226044 0.000000 0.000000 0.000000 -5.740660 -15.470338 1.143908 5.692213 -7.128431 27.663406 -1.376402 -9.136257 27.356428 -3.521967 9.154817 6.304141 21.048664 8.899373 -40.650543 -20.974403 13.879242 8.959084 -8.209352 3.004010 -7.254027 3.089181 -14.089146 8.026228 24.091982 -24.817587 1.312336 113.089241 4.732006 -0.165685 15.162441 1.505525 -6.169375 -49.874557 42.200588 -0.249803 81.519318 2.010533 -28.849886 -21.417322 -2.877735 12.379420 -45.103489 -46.655323 -5.944906 77.681015 -13.006392 7.682573 -25.303785 1.749147 -6.676851 
9.228130 31.830349 62.427010 -1.512190 1.617694 -89.894821 0.000000 0.000000 0.000000 -7.043358 -15.250086 1.191764 6.879946 -7.146727 27.378128 -1.987431 -9.455476 27.403990 -3.521967 9.154817 6.304141 21.699989 9.241317 -39.752205 -20.968201 13.993552 8.347106 -8.398152 2.876847 -7.219873 3.089181 -14.089146 8.026228 23.619003 -24.891764 4.282045 113.283272 4.208426 1.564712 15.173462 2.135484 -6.048922 -50.508549 41.633705 -0.120481 82.292175 1.884398 -27.520729 -22.115587 -2.974912 12.500731 -45.414509 -46.644081 -5.487245 76.634445 -13.005702 8.707101 -23.785404 1.630648 -6.514186 
9.222406 31.817480 62.804993 -1.283701 1.551881 -89.604019 0.000000 0.000000 0.000000 -7.284228 -14.751264 1.276912 7.215227 -8.000554 27.378052 -3.094633 -9.214490 27.253839 -3.521967 9.154817 6.304141 21.892929 9.659843 -38.942657 -20.987597 14.211365 7.775776 -8.723211 2.667472 -7.162762 3.089181 -14.089146 8.026228 23.607548 -25.910126 6.093759 114.124275 3.812395 3.541453 15.573798 2.349427 -5.955363 -50.844425 40.982456 -0.553455 83.012238 1.980616 -27.144413 -22.951183 -3.173685 12.853777 -44.352451 -47.017754 -5.968425 75.363586 -12.926801 10.046980 -24.068415 1.706490 -6.740395 
9.204442 31.756189 63.044338 -1.113164 1.675487 -89.323830 0.000000 0.000000 0.000000 -7.414728 -14.507362 1.263681 7.439176 -8.373953 27.514675 -4.073668 -9.158264 27.409126 -3.521967 9.154817 6.304141 22.131130 10.175458 -37.869938 -21.002747 14.255185 7.370118 -8.870390 2.515612 -7.130085 3.089181 -14.089146 8.026228 24.472765 -27.080832 6.213562 114.704666 3.846386 3.923678 16.480944 2.712709 -5.755749 -51.371346 40.201118 -1.313860 83.639519 2.206331 -26.380852 -23.885122 -3.350164 13.085590 -43.961109 -47.221642 -6.294807 74.821136 -12.723335 11.735578 -25.435305 1.898220 -7.196417 
9.180249 31.713480 63.148937 -1.376807 1.874979 -89.990730 0.000000 0.000000 0.000000 -7.756169 -14.885549 2.037591 8.298577 -8.599880 27.522331 -5.772169 -8.974536 27.632105 -3.521967 9.154817 6.304141 22.358116 10.494533 -37.247143 -21.074621 14.494995 7.281274 -9.277973 2.737777 -7.121308 3.089181 -14.089146 8.026228 25.934952 -27.341190 6.046117 115.224319 3.844012 4.397189 17.028082 3.339357 -5.552945 -50.939377 40.140839 -1.028831 83.905121 2.177962 -25.642807 -24.546656 -3.420460 13.152474 -45.153172 -46.880924 -5.161207 75.041397 -12.916785 12.043976 -26.295519 2.008259 -7.404510 
9.151795 31.710434 63.141846 -1.721353 2.148454 -91.180176 0.000000 0.000000 0.000000 -8.165519 -15.276772 2.881455 9.005603 -8.799831 27.527460 -7.681413 -8.968633 27.918520 -3.521967 9.154817 6.304141 22.138586 10.928498 -36.607487 -21.093975 14.305948 6.512518 -9.062339 2.484853 -7.117448 3.089181 -14.089146 8.026228 27.298086 -26.826469 6.116467 115.824806 3.798806 4.519795 17.543335 3.411611 -5.464153 -50.091953 40.523010 -0.163265 83.807373 1.973130 -24.884172 -24.719959 -3.436389 13.087996 -46.861172 -46.411598 -3.677230 75.395737 -13.191449 11.748839 -26.975611 2.106709 -7.503782 
9.118680 31.703884 63.019051 -2.179724 2.427396 -91.937416 0.000000 0.000000 0.000000 -8.343760 -15.395943 3.177177 8.899241 -9.607017 27.973618 -9.634685 -8.405196 28.130419 -3.521967 9.154817 6.304141 21.012188 10.884583 -37.309345 -21.123739 14.479982 5.594756 -9.030727 2.547171 -7.124997 3.089181 -14.089146 8.026228 28.286444 -26.150183 6.342230 115.973679 3.596919 5.690346 17.816650 3.537213 -5.405203 -49.538074 40.642181 0.399921 83.451172 1.883090 -24.141165 -24.160660 -3.261148 12.737950 -48.358112 -46.316963 -2.831891 76.144760 -13.395533 10.172464 -27.543133 2.174305 -7.507507 
9.097754 31.657932 62.716316 -2.795145 2.424379 -92.409958 0.000000 0.000000 0.000000 -7.920261 -15.626441 3.230996 7.971372 -10.074251 28.375257 -10.988904 -8.176499 28.291187 -3.521967 9.154817 6.304141 19.583702 10.318060 -39.406570 -21.298637 15.178029 5.299144 -8.789359 3.118287 -7.223175 3.089181 -14.089146 8.026228 29.111588 -25.158930 6.931820 115.701126 3.229887 8.413155 17.591318 3.723998 -5.393262 -48.910255 40.552094 0.591171 82.996460 1.973061 -23.844851 -22.660192 -2.909925 12.008675 -49.538376 -46.403660 -2.109209 77.338966 -13.640983 7.347868 -28.902697 2.242557 -7.491925 
9.073766 31.703365 62.198532 -3.652613 2.611554 -93.010193 0.000000 0.000000 0.000000 -7.413294 -15.666780 3.323090 6.834011 -10.969478 28.786158 -12.215197 -7.273204 27.968107 -3.521967 9.154817 6.304141 17.332485 9.629196 -42.359196 -21.664791 15.904995 4.683723 -6.082994 4.346267 -7.583345 3.089181 -14.089146 8.026228 30.408186 -24.254637 7.204665 116.464012 2.859162 11.418460 16.562870 2.777344 -5.734681 -47.994305 40.573132 1.109899 81.830101 1.902992 -24.069191 -20.721386 -2.508604 11.176401 -50.984165 -46.443314 -1.466748 78.606827 -13.826155 5.181716 -30.207567 2.322562 -7.581725 
8.980191 31.891069 61.404797 -4.393399 2.634398 -93.771393 0.000000 0.000000 0.000000 -6.510835 -14.772079 3.132799 6.309066 -11.793842 28.926176 -13.632274 -6.796701 27.690498 -3.521967 9.154817 6.304141 13.638546 8.914204 -46.225151 -22.192457 16.540956 2.711262 0.455554 6.271665 -8.164074 3.089181 -14.089146 8.026228 32.392864 -22.098579 6.656949 118.882378 2.311929 14.099162 14.315047 1.978341 -6.177845 -46.402733 41.090706 1.911976 79.865135 1.833951 -24.878826 -18.011688 -1.997188 10.035518 -51.776070 -46.053398 -1.443613 79.881577 -13.915780 2.082455 -31.748802 2.458833 -7.641448 
8.866054 32.183468 60.319843 -5.220345 2.602413 -94.109566 0.000000 0.000000 0.000000 -5.492157 -12.519909 2.359253 6.205806 -12.810865 28.827852 -13.889015 -6.712635 27.213238 -3.521967 9.154817 6.304141 7.952390 8.023563 -51.329765 -22.751745 16.702007 0.798370 3.181277 8.722053 -8.403929 3.089181 -14.089146 8.026228 34.491825 -17.732319 6.476328 124.645737 1.282692 17.438723 10.090794 0.831581 -6.884887 -44.353535 41.384789 2.676363 76.782883 1.767802 -25.790342 -15.047781 -1.519238 8.758442 -51.647594 -45.798092 -2.143751 80.989403 -13.856066 0.247166 -31.986803 2.456360 -7.574036 
